<svg version="1" xmlns="http://www.w3.org/2000/svg" width="2000" height="2000" viewBox="0 0 1500.000000 1500.000000"><path d="M1001.7 22.6c-.1.1-6.7.4-14.7.8-8 .3-15.6.8-17 1-1.4.2-5 .7-8 1-3 .4-6.8.8-8.5 1.1-1.6.3-4.7.7-6.9 1-5.4.7-22.9 4.3-30.1 6.2-3.3.8-6.4 1.6-7 1.7-17.3 3.9-51.8 16.8-76 28.6-55.1 26.6-101.7 60.1-143.8 103.1-35.8 36.6-61.7 74.3-79.7 116.2-7 16.5-15.3 40.8-17.5 51.7-.2.8-.8 3.3-1.4 5.5-1.1 4.2-3.8 17.5-4.7 23.5-.3 1.9-.7 4.2-.9 5-.3.8-.7 4.4-1 8-.4 3.6-.8 7.2-1 8-1 3.8-1.9 24.3-1.9 42 0 27.6 1.1 40 6 71 3.7 23.8 13.5 58.1 24.7 86.5 8.3 21.1 25.8 57 34.2 70.1 1.9 3 3.5 5.6 3.5 5.9 0 .8 14.1 22.9 21.8 34 17.8 25.9 49.8 65.8 71.1 88.7.9.9 2.1 2.3 2.6 3 1.7 2.2 9.9 12.3 10.5 12.8 3.1 3 26 33.1 34.9 46 12 17.2 32.1 48.9 32.1 50.6 0 .3.9 1.8 1.9 3.3 3.6 4.9 16.7 31.4 23.4 47.2 11.4 26.5 20.6 55.6 24.3 76.9.2 1.4.9 4.7 1.4 7.5.8 4.5 1.5 9.3 2.6 17.9 2 16.1 2 50.7-.1 61.6-.3 1.4-.7 4.1-1 6-2 12-5.4 25-10 38-4.1 11.7-13.3 29.5-22.2 43-4.1 6.3-7.8 11.7-8.2 12-.3.3-3.2 3.7-6.3 7.6-24.2 30.3-74.2 69-117.3 90.6-7.1 3.6-14.8 7.3-17 8.3-2.2.9-4.9 2-6 2.5-10.5 4.8-38 12.9-49.5 14.5-2.5.4-6.1.9-8 1.2-1.9.3-104.7.7-228.5.9-123.7.2-228.4.3-232.6.4h-7.6v142l2.6.1c16 .3 465.3-.1 470.1-.5 13-1.1 19.6-1.8 25.5-2.6 3.3-.5 8-1.2 10.5-1.5 3.5-.5 20.1-3.8 30-6 15.2-3.3 49.3-15.1 67-23.2 41.1-18.7 80.4-44.2 118.1-76.6 56.6-48.8 94.2-102.6 115.6-165.2 3.2-9.5 9.6-32.7 10.7-39 .3-1.7 1-5.5 1.6-8.5.6-3 1.3-6.6 1.5-8 .2-1.4.6-3.9.9-5.5.2-1.7.7-5.5 1.1-8.5.4-3 .8-6.6 1-8 2.5-16.8 2.5-62.8 0-82-.1-1.4-.6-5-.9-8-.4-3-.9-6.2-1.1-7-.3-.8-.7-3.3-.9-5.5-.9-6.6-6.4-30.2-10.2-42.9-16.3-55.3-47.3-114.7-90.1-173.1-6.6-9-35.4-45.2-39-49-1-1.1-5.6-6.5-10.1-12-4.6-5.5-9.1-10.9-10.1-12.1-21.4-25-50.8-67.2-71.4-101.9-20.2-34.3-40.6-82.6-49.1-116.5-1.5-5.8-3.1-12.1-3.6-14-.5-1.9-1.4-6.2-1.9-9.5-.6-3.3-1.3-7.1-1.6-8.5-.3-1.4-.8-4.5-1.1-7-.3-2.5-.7-5.2-.9-6-.2-.8-.7-5.3-1.1-10-.3-4.7-.8-9.6-1-11-.5-3.7-.5-31.8.1-37 1.5-14.9 3.4-27.1 5-32 .3-1 .8-2.8 1-3.9.2-1.2 1.6-6.1 3.1-10.9 1.5-4.8 2.8-8.9 2.9-9.2 1.3-4.1 8.5-20.7 11.8-27 6.3-12 21.9-36.8 24.7-39 .3-.3 2.4-2.7 4.5-5.5 8.5-10.6 25.8-28.4 37.7-38.8 34.4-30.1 83.8-57.6 124.3-69.4 11.9-3.4 13.7-3.9 18.5-4.8 1.4-.2 5-.9 8-1.5s7.3-1.3 9.5-1.6c2.2-.3 5.4-.8 7-1.1 1.7-.3 81.1-.7 176.5-.9 95.4-.2 174-.3 174.5-.4.6 0 1-4.9 1.1-12.3.1-6.7.5-23.5.8-37.2.4-13.8.9-33.1 1.2-43 .2-9.9.6-25.1.8-33.8l.4-15.7-3.6-.1c-8.5-.1-332.4-.4-332.5-.3z"/></svg>